<svg xmlns="http://www.w3.org/2000/svg" xmlns:xlink="http://www.w3.org/1999/xlink" width="20.508" height="24.216" viewBox="0 0 20.508 24.216">
  <defs>
    <style>
      .cls-1 {
        fill: none;
      }

      .cls-2 {
        clip-path: url(#clip-path);
      }

      .cls-3 {
        fill: #ffc400;
      }
    </style>
    <clipPath id="clip-path">
      <rect class="cls-1" width="20.508" height="24.216"/>
    </clipPath>
  </defs>
  <g id="finished" class="cls-2">
    <path id="finished-2" data-name="finished" class="cls-3" d="M4.168,24.008A4.315,4.315,0,0,1,1.11,22.755,3.778,3.778,0,0,1,.012,19.8L1.155,6.286a1.758,1.758,0,0,1,1.786-1.55H5.2v-.1A4.806,4.806,0,0,1,10.148,0,4.807,4.807,0,0,1,15.1,4.641v.1h2.258A1.757,1.757,0,0,1,19.14,6.288L20.284,19.8a3.779,3.779,0,0,1-1.1,2.957,4.318,4.318,0,0,1-3.059,1.252ZM2.651,6.4,1.507,19.909a2.386,2.386,0,0,0,.7,1.891,2.727,2.727,0,0,0,1.958.8h11.96a2.728,2.728,0,0,0,1.958-.8,2.385,2.385,0,0,0,.7-1.893L17.646,6.4a.287.287,0,0,0-.292-.255H15.1V7.874a.751.751,0,0,1-1.5,0V6.142H6.7V7.874a.751.751,0,0,1-1.5,0V6.142H2.942A.286.286,0,0,0,2.651,6.4ZM6.7,4.641v.1h6.9v-.1a3.35,3.35,0,0,0-3.448-3.234A3.351,3.351,0,0,0,6.7,4.641Zm1.626,12.2L6.2,14.853a.786.786,0,0,1,0-1.162.919.919,0,0,1,1.239,0l1.5,1.41,3.91-3.667a.915.915,0,0,1,1.238,0,.785.785,0,0,1,0,1.162L9.564,16.844a.917.917,0,0,1-1.239,0Z" transform="translate(0.106 0.104)"/>
  </g>
</svg>
