<svg id="pending_shipments" data-name="pending shipments" xmlns="http://www.w3.org/2000/svg" width="22.061" height="26.073" viewBox="0 0 22.061 26.073">
  <defs>
    <style>
      .cls-1 {
        fill: #70703a;
      }
    </style>
  </defs>
  <path id="pending_shipments-2" data-name="pending shipments" class="cls-1" d="M18.831,3.231A11.031,11.031,0,0,0,0,10.948s0,.009,0,.013l.049.07,6.054,8.6v6.438h9.871V19.635l6.054-8.6.032-.046a.287.287,0,0,0,0-.032A10.954,10.954,0,0,0,18.831,3.231Zm-7.8-1.7a9.519,9.519,0,0,1,9.386,8.008h0A3.613,3.613,0,0,0,18.6,9.119a4.183,4.183,0,0,0-2.443,1,3.927,3.927,0,0,0-2.69-1,4.185,4.185,0,0,0-2.444,1,3.93,3.93,0,0,0-2.69-1,4.185,4.185,0,0,0-2.444,1,3.933,3.933,0,0,0-2.69-1,3.777,3.777,0,0,0-1.555.417h0A9.519,9.519,0,0,1,11.031,1.528Zm3.416,23.017H7.632v-4.43h6.816Zm-4.219-5.958H9.536L6.793,11.352a2.716,2.716,0,0,1,1.6-.706,2.6,2.6,0,0,1,1.835.8Zm1.528,0V11.509a2.853,2.853,0,0,1,1.771-.864,2.509,2.509,0,0,1,1.719.7L12.5,18.587ZM1.974,11.111a2.483,2.483,0,0,1,1.3-.465,2.737,2.737,0,0,1,1.985.959L7.9,18.587H7.235Zm12.87,7.476h-.708l2.636-6.955a2.96,2.96,0,0,1,1.888-.986,2.32,2.32,0,0,1,1.434.48h0Zm0,0" transform="translate(0 0)"/>
</svg>
