<svg id="Component_69_1" data-name="Component 69 – 1" xmlns="http://www.w3.org/2000/svg" xmlns:xlink="http://www.w3.org/1999/xlink" width="20.777" height="23.984" viewBox="0 0 20.777 23.984">
  <defs>
    <style>
      .cls-1 {
        fill: none;
      }

      .cls-2 {
        clip-path: url(#clip-path);
      }

      .cls-3 {
        fill: #378240;
      }
    </style>
    <clipPath id="clip-path">
      <rect class="cls-1" width="20.777" height="23.984"/>
    </clipPath>
  </defs>
  <g id="privacy" class="cls-2">
    <path id="Path_60" data-name="Path 60" class="cls-3" d="M20.553,6.425V6.407c-.011-.228-.018-.468-.022-.736a2.534,2.534,0,0,0-2.411-2.459A10.038,10.038,0,0,1,11.355.417L11.34.4a1.569,1.569,0,0,0-2.1,0L9.222.417A10.039,10.039,0,0,1,2.459,3.212,2.533,2.533,0,0,0,.047,5.671c0,.266-.011.507-.022.736V6.45C-.03,9.227-.1,12.682,1.083,15.819A11.9,11.9,0,0,0,4,20.276a15.337,15.337,0,0,0,5.713,3.312,1.794,1.794,0,0,0,.234.063,1.764,1.764,0,0,0,.68,0,1.8,1.8,0,0,0,.235-.063,15.346,15.346,0,0,0,5.707-3.314,11.921,11.921,0,0,0,2.919-4.458C20.674,12.67,20.607,9.207,20.553,6.425Zm-2.393,8.91c-1.244,3.306-3.784,5.577-7.764,6.941a.37.37,0,0,1-.045.012.325.325,0,0,1-.125,0,.364.364,0,0,1-.045-.012C6.2,20.914,3.656,18.645,2.413,15.339c-1.087-2.891-1.026-6.064-.971-8.862V6.461c.011-.241.018-.492.022-.769A1.126,1.126,0,0,1,2.538,4.6a12.654,12.654,0,0,0,4.222-.91A11.064,11.064,0,0,0,10.2,1.423a.133.133,0,0,1,.176,0,11.068,11.068,0,0,0,3.441,2.266,12.654,12.654,0,0,0,4.223.91,1.126,1.126,0,0,1,1.073,1.092c0,.278.012.53.023.769C19.19,9.263,19.25,12.438,18.16,15.335Zm0,0" transform="translate(0.1 0.187)"/>
    <path id="Path_61" data-name="Path 61" class="cls-3" d="M96.505,128.41a5.906,5.906,0,1,0,6.107,5.9A6.014,6.014,0,0,0,96.505,128.41Zm0,10.415a4.515,4.515,0,1,1,4.669-4.513A4.6,4.6,0,0,1,96.505,138.826Zm0,0" transform="translate(-86.117 -122.284)"/>
    <path id="Path_62" data-name="Path 62" class="cls-3" d="M158.345,212.195l-2.742,2.742-.744-.744a.695.695,0,0,0-.983.983l1.236,1.236a.695.695,0,0,0,.983,0l3.233-3.233a.695.695,0,0,0-.983-.983Zm0,0" transform="translate(-146.261 -201.998)"/>
  </g>
</svg>
